<?xml version="1.0" encoding="iso-8859-1"?>
<!-- Generator: Adobe Illustrator 19.0.0, SVG Export Plug-In . SVG Version: 6.00 Build 0)  -->
<svg xmlns="http://www.w3.org/2000/svg" xmlns:xlink="http://www.w3.org/1999/xlink" version="1.1" id="Capa_1" x="0px" y="0px" viewBox="0 0 512.001 512.001" style="enable-background:new 0 0 512.001 512.001;" xml:space="preserve" width="512px" height="512px">
<g>
	<g>
		<path d="M463.325,212.715c-14.503-28.773-22.345-61.011-22.676-93.229c-0.331-32.218,6.847-64.612,20.755-93.671    c2.692-5.619,2.317-12.122-1.005-17.393C457.079,3.148,451.376,0,445.145,0h-49.187c-0.033,0-0.066,0-0.1,0h-27.227    c-12.739,0-24.679,6.249-31.939,16.719l-24.654,35.555c-12.921,18.635-33.337,29.321-56.011,29.321c-0.004,0-0.009,0-0.013,0    C233.334,81.59,212.918,70.896,200,52.254L175.386,16.73C168.126,6.254,156.184,0,143.44,0H66.603    c-6.047,0-11.657,3.006-15.008,8.04c-3.351,5.034-3.957,11.37-1.621,16.95l4.5,10.749c22.404,53.506,21.787,114.615-1.692,167.658    l-5.713,12.906v230.557c0,17.35,11.62,32.906,28.256,37.827l7.162,2.119c56.763,16.798,115.127,25.194,173.514,25.194    c58.371,0,116.764-8.4,173.513-25.194l7.162-2.119c16.637-4.923,28.257-20.478,28.257-37.827V215.907L463.325,212.715z     M143.44,30.059c2.888,0,5.594,1.418,7.238,3.79l24.614,35.524c18.34,26.469,48.514,42.274,80.716,42.28c0.006,0,0.012,0,0.018,0    c32.195,0,62.368-15.794,80.714-42.251l24.654-35.554c1.645-2.373,4.352-3.789,7.238-3.789h7.819    c-16.26,50.046-57.666,97.99-119.27,97.99c-61.331,0-105.039-47.787-119.926-97.99H143.44z M434.873,267.874H316.871    c-8.3,0-15.03,6.729-15.03,15.03c0,8.3,6.729,15.03,15.03,15.03h118.002v26.051H316.871c-8.3,0-15.03,6.729-15.03,15.03    c0,8.3,6.729,15.03,15.03,15.03h118.002v27.31H316.871c-8.3,0-15.03,6.729-15.03,15.03c0,8.3,6.729,15.03,15.03,15.03h118.002    v35.448c0.001,4.13-2.765,7.832-6.725,9.004l-7.162,2.12c-107.936,31.94-222.037,31.939-329.97,0l-7.162-2.12    c-3.96-1.171-6.725-4.874-6.725-9.004v-34.818h117.716c8.3,0,15.03-6.729,15.03-15.03c0-8.3-6.729-15.03-15.03-15.03H77.128    v-27.31h117.716c8.3,0,15.03-6.729,15.03-15.03s-6.729-15.03-15.03-15.03H77.128v-26.051h117.716c8.3,0,15.03-6.729,15.03-15.03    c0-8.3-6.729-15.03-15.03-15.03H77.128v-45.844l3.14-7.095c25.946-58.613,27.442-125.856,4.324-185.505h21.55    c7.465,30.784,23.794,60.455,45.909,82.927c29.05,29.519,65.404,45.122,105.13,45.122c80.78,0,133.252-64.262,150.618-128.049    h19.066c-10.994,28.523-16.588,59.197-16.274,89.735c0.365,35.578,8.751,71.179,24.282,103.199V267.874z" fill="#FFFFFF"/>
	</g>
</g>
<g>
</g>
<g>
</g>
<g>
</g>
<g>
</g>
<g>
</g>
<g>
</g>
<g>
</g>
<g>
</g>
<g>
</g>
<g>
</g>
<g>
</g>
<g>
</g>
<g>
</g>
<g>
</g>
<g>
</g>
</svg>
