<?xml version="1.0" encoding="iso-8859-1"?>
<!-- Generator: Adobe Illustrator 19.0.0, SVG Export Plug-In . SVG Version: 6.00 Build 0)  -->
<svg xmlns="http://www.w3.org/2000/svg" xmlns:xlink="http://www.w3.org/1999/xlink" version="1.1" id="Capa_1" x="0px" y="0px" viewBox="0 0 512 512" style="enable-background:new 0 0 512 512;" xml:space="preserve" width="512px" height="512px">
<g>
	<g>
		<path d="M456.354,334.396c-0.495-0.828-1.016-1.621-1.536-2.321c-5.171-7.228-12.86-12.006-21.632-13.449    c-8.73-1.442-17.579,0.614-24.781,5.786l-95.403,68.122h-99.669c-4.702,0-8.533-3.823-8.533-8.533s3.831-8.533,8.533-8.533H268.8    c16.469,0,29.867-13.397,29.867-29.867c0-0.094-0.009-0.879-0.017-0.964c-0.529-16.461-14.413-29.295-30.532-28.902h-111.01    c-9.839,0.085-19.422,3.61-26.974,9.907l-41.728,34.731c-1.946,1.63-3.072,4.028-3.072,6.562v102.4    c0,4.719,3.823,8.533,8.533,8.533h211.721c13.858-0.017,27.358-4.898,38.025-13.73l103.45-85.478    C461.116,368.648,465.195,349.21,456.354,334.396z M436.685,365.133L332.74,450.987c-7.629,6.315-17.28,9.796-27.162,9.813H102.4    v-89.865l38.664-32.188c4.54-3.78,10.283-5.897,16.12-5.948l111.206-0.008c7.074-0.009,12.979,5.342,13.21,12.809    c0,7.057-5.743,12.8-12.8,12.8h-55.467c-14.114,0-25.6,11.486-25.6,25.6s11.486,25.6,25.6,25.6h102.4    c1.775,0,3.507-0.555,4.975-1.587l97.638-69.726c3.516-2.526,7.791-3.507,12.075-2.825c4.275,0.708,8.013,3.029,10.581,6.613    c0.256,0.35,0.486,0.708,0.708,1.075C446.029,350.379,444.023,359.876,436.685,365.133z" fill="#FFFFFF"/>
	</g>
</g>
<g>
	<g>
		<path d="M93.611,349.867H0v17.067h85.077v128H0V512h93.611c4.71,0,8.533-3.814,8.533-8.533V358.4    C102.144,353.681,98.321,349.867,93.611,349.867z" fill="#FFFFFF"/>
	</g>
</g>
<g>
	<g>
		<path d="M42.667,426.667c-14.114,0-25.6,11.486-25.6,25.6c0,14.114,11.486,25.6,25.6,25.6s25.6-11.486,25.6-25.6    C68.267,438.153,56.781,426.667,42.667,426.667z M42.667,460.8c-4.702,0-8.533-3.823-8.533-8.533c0-4.71,3.831-8.533,8.533-8.533    c4.702,0,8.533,3.823,8.533,8.533C51.2,456.977,47.369,460.8,42.667,460.8z" fill="#FFFFFF"/>
	</g>
</g>
<g>
	<g>
		<path d="M503.467,264.533H8.533c-4.71,0-8.533,3.814-8.533,8.533c0,32.93,26.795,59.733,59.733,59.733h392.533    c32.93,0,59.733-26.803,59.733-59.733C512,268.348,508.186,264.533,503.467,264.533z M452.267,315.733H59.733    c-20.608,0-37.845-14.686-41.805-34.133h476.143C490.112,301.047,472.875,315.733,452.267,315.733z" fill="#FFFFFF"/>
	</g>
</g>
<g>
	<g>
		<path d="M256,42.667c-122.334,0-221.867,99.533-221.867,221.867v8.533c0,4.719,3.823,8.533,8.533,8.533h426.667    c4.719,0,8.533-3.814,8.533-8.533v-8.533C477.867,142.199,378.342,42.667,256,42.667z M51.2,264.533    c0-112.922,91.878-204.8,204.8-204.8s204.8,91.878,204.8,204.8H51.2z" fill="#FFFFFF"/>
	</g>
</g>
<g>
	<g>
		<path d="M115.644,140.006c-5.965,6.707-11.494,13.884-16.435,21.342l14.225,9.429c4.506-6.793,9.54-13.338,14.967-19.439    L115.644,140.006z" fill="#FFFFFF"/>
	</g>
</g>
<g>
	<g>
		<path d="M256,76.8c-47.923,0.026-93.551,18.133-128.469,50.961l11.691,12.433c31.744-29.85,73.224-46.302,116.787-46.327L256,76.8    z" fill="#FFFFFF"/>
	</g>
</g>
<g>
	<g>
		<rect x="230.4" width="51.2" height="17.067" fill="#FFFFFF"/>
	</g>
</g>
<g>
	<g>
		<rect x="247.467" y="8.533" width="17.067" height="42.667" fill="#FFFFFF"/>
	</g>
</g>
<g>
</g>
<g>
</g>
<g>
</g>
<g>
</g>
<g>
</g>
<g>
</g>
<g>
</g>
<g>
</g>
<g>
</g>
<g>
</g>
<g>
</g>
<g>
</g>
<g>
</g>
<g>
</g>
<g>
</g>
</svg>
