<?xml version="1.0"?>
<svg xmlns="http://www.w3.org/2000/svg" xmlns:xlink="http://www.w3.org/1999/xlink" version="1.1" id="Capa_1" x="0px" y="0px" viewBox="0 0 512 512" style="enable-background:new 0 0 512 512;" xml:space="preserve" width="512px" height="512px" class=""><g><g>
	<g>
		<path d="M376,33c-42.335,0-79.128,20.15-106.399,58.273c-5.39,7.533-9.893,15.056-13.601,22.047    c-3.708-6.991-8.211-14.514-13.601-22.047C215.128,53.15,178.335,33,136,33C57.6,33,0,98.255,0,178.263    c0,89.175,72.455,150.202,182.129,242.578c20.429,17.207,41.553,35,64.047,54.495c2.819,2.443,6.321,3.665,9.824,3.665    s7.005-1.222,9.824-3.665c22.494-19.495,43.618-37.288,64.047-54.495C439.545,328.464,512,267.438,512,178.263    C512,98.276,454.427,33,376,33z M310.545,397.896c-17.517,14.754-35.543,29.937-54.545,46.287    c-19.002-16.35-37.028-31.533-54.545-46.287C142.505,348.242,94.987,308.211,65.055,269H136c5.682,0,10.876-3.21,13.416-8.292    L166,227.541l46.584,93.167c2.54,5.082,7.734,8.292,13.416,8.292s10.876-3.21,13.416-8.292L256,287.54l16.584,33.167    c2.54,5.082,7.734,8.292,13.416,8.292s10.876-3.21,13.416-8.292L346,227.541l16.584,33.167c2.54,5.082,7.734,8.192,13.416,8.192    h70.945C417.013,308.112,369.495,348.242,310.545,397.896z M385.27,239l-25.854-51.708C356.876,182.21,351.682,179,346,179    s-10.876,3.21-13.416,8.292L286,280.458l-16.584-33.167C266.876,242.21,261.682,239,256,239s-10.876,3.21-13.416,8.292    L226,280.458l-46.584-93.167C176.876,182.21,171.682,179,166,179s-10.876,3.21-13.416,8.292L126.729,239H45.68    C35.481,219.464,30,199.576,30,178.263C30,112.552,75.57,63,136,63c32.447,0,59.869,15.154,81.507,45.041    c17.033,23.529,23.961,47.693,24.045,47.99C243.36,162.513,249.267,167,256,167c6.742,0,12.656-4.499,14.456-10.997    C270.714,155.073,297.123,63,376,63c60.43,0,106,49.552,106,115.263c0,21.314-5.481,41.201-15.68,60.737H385.27z" data-original="#000000" class="active-path" data-old_color="#000000" fill="#FFFFFF"/>
	</g>
</g></g> </svg>
