<?xml version="1.0" encoding="iso-8859-1"?>
<!-- Generator: Adobe Illustrator 19.0.0, SVG Export Plug-In . SVG Version: 6.00 Build 0)  -->
<svg xmlns="http://www.w3.org/2000/svg" xmlns:xlink="http://www.w3.org/1999/xlink" version="1.1" id="Capa_1" x="0px" y="0px" viewBox="0 0 512.003 512.003" style="enable-background:new 0 0 512.003 512.003;" xml:space="preserve" width="512px" height="512px">
<g>
	<g>
		<path d="M378.958,217.879c-3.91-3.91-10.24-3.91-14.15,0c-3.9,3.9-3.9,10.23,0,14.14c3.91,3.91,10.24,3.91,14.15,0    C382.859,228.109,382.859,221.779,378.958,217.879z" fill="#FFFFFF"/>
	</g>
</g>
<g>
	<g>
		<path d="M503.161,65.389L446.589,8.818c-11.724-11.722-30.697-11.726-42.423,0l-18.14,18.14    c-7.438,7.438-10.285,17.911-8.041,27.863l-82.012,14.471c-18.29,3.237-34.885,11.882-47.985,24.994l-17.532,17.522    c-11.546,11.546-16.251,27.381-14.121,42.424c-15.155-2.14-30.858,2.565-42.438,14.144    c-11.563,11.556-16.291,27.246-14.152,42.433c-15.149-2.131-30.848,2.568-42.419,14.139    c-11.234,11.234-16.351,26.789-14.141,42.449c-15.045-2.132-30.881,2.573-42.429,14.12l-40.291,40.281    c-27.287,27.289-27.288,71.701,0.001,99.003l70.712,70.711c27.297,27.284,71.706,27.291,99.002-0.002l40.279-40.29    c11.548-11.548,16.253-27.387,14.119-42.433c15.591,2.199,31.173-2.859,42.45-14.136c11.544-11.544,16.248-27.379,14.117-42.425    c15.508,2.19,31.114-2.794,42.454-14.145c11.545-11.545,16.249-27.378,14.119-42.42c15.655,2.21,31.214-2.903,42.454-14.143    l17.515-17.524c13.118-13.106,21.762-29.702,24.999-47.997l14.47-82.005c9.933,2.239,20.41-0.587,27.864-8.041l18.14-18.14    C514.885,96.087,514.887,77.114,503.161,65.389z M216.316,437.078l-40.279,40.289c-19.492,19.493-51.218,19.492-70.718,0    L34.61,406.66c-19.493-19.502-19.493-51.227-0.002-70.719l40.291-40.281c11.697-11.698,30.73-11.698,42.428,0l98.99,98.989    C228.015,406.347,228.015,425.38,216.316,437.078z M272.885,380.508c-11.692,11.692-30.686,11.741-42.427,0l-98.99-98.99    c-11.721-11.722-11.724-30.703,0.001-42.428c11.713-11.714,30.681-11.718,42.419-0.007c0.003,0.003,0.005,0.005,0.008,0.008    l98.986,98.985l0.001,0.001c0,0,0,0,0,0.001C284.578,349.781,284.58,368.814,272.885,380.508z M329.453,323.942    c-11.711,11.725-30.707,11.727-42.424-0.004l-98.993-98.992c-11.728-11.72-11.734-30.698,0.003-42.426    c11.729-11.729,30.687-11.731,42.418,0l99,99C341.153,293.214,341.153,312.243,329.453,323.942z M422.991,212.518    c-2.518,14.229-9.24,27.137-19.446,37.333l-17.518,17.527c-11.697,11.698-30.73,11.698-42.428,0l-99-99    c-11.697-11.698-11.697-30.73-0.002-42.426l17.535-17.525c10.19-10.2,23.099-16.922,37.322-19.44l90.254-15.925l49.207,49.208    L422.991,212.518z M489.018,93.669l-18.14,18.14c-3.908,3.907-10.229,3.908-14.138,0l-56.57-56.571    c-3.907-3.909-3.908-10.229,0.001-14.138l18.14-18.14c3.909-3.908,10.23-3.907,14.138,0l56.569,56.571    C492.919,83.433,492.933,89.752,489.018,93.669z" fill="#FFFFFF"/>
	</g>
</g>
<g>
	<g>
		<path d="M505.415,378.782l-44.56-87.299c-1.709-3.347-5.149-5.454-8.907-5.454c-3.758,0-7.198,2.107-8.907,5.454l-44.557,87.295    c-20.252,39.621,8.607,87.251,53.464,87.251C496.797,466.029,525.666,418.407,505.415,378.782z M451.948,446.029    c-29.934,0-49.128-31.79-35.652-58.154l35.652-69.85l35.655,69.854C501.062,414.214,481.911,446.029,451.948,446.029z" fill="#FFFFFF"/>
	</g>
</g>
<g>
	<g>
		<path d="M350.671,189.588l-48.28-48.28c-3.906-3.905-10.236-3.905-14.143,0c-3.905,3.905-3.905,10.237,0,14.142l48.28,48.28    c3.906,3.905,10.236,3.905,14.143,0C354.576,199.824,354.576,193.493,350.671,189.588z" fill="#FFFFFF"/>
	</g>
</g>
<g>
</g>
<g>
</g>
<g>
</g>
<g>
</g>
<g>
</g>
<g>
</g>
<g>
</g>
<g>
</g>
<g>
</g>
<g>
</g>
<g>
</g>
<g>
</g>
<g>
</g>
<g>
</g>
<g>
</g>
</svg>
